<svg width="36" height="36" viewBox="0 0 36 36" fill="none" xmlns="http://www.w3.org/2000/svg">
<path d="M7.35206 22.0557H5.88168C5.10174 22.0557 4.35375 21.7459 3.80225 21.1944C3.25075 20.6429 2.94092 19.8949 2.94092 19.115V5.88153C2.94092 5.10159 3.25075 4.35359 3.80225 3.80209C4.35375 3.25059 5.10174 2.94077 5.88168 2.94077H19.1151C19.895 2.94077 20.643 3.25059 21.1945 3.80209C21.746 4.35359 22.0559 5.10159 22.0559 5.88153V7.35191M16.1743 13.2334H29.4078C31.0319 13.2334 32.3485 14.5501 32.3485 16.1742V29.4076C32.3485 31.0318 31.0319 32.3484 29.4078 32.3484H16.1743C14.5502 32.3484 13.2336 31.0318 13.2336 29.4076V16.1742C13.2336 14.5501 14.5502 13.2334 16.1743 13.2334Z" stroke="#1E1E1E" stroke-width="3.5" stroke-linecap="round" stroke-linejoin="round"/>
</svg>
