<svg width="41" height="39" viewBox="0 0 41 39" fill="none" xmlns="http://www.w3.org/2000/svg">
<path fill-rule="evenodd" clip-rule="evenodd" d="M29.4246 2.19038C27.9241 1.43857 26.1123 2.44481 26.1123 4.0613C26.1123 4.88199 26.6265 5.59558 27.3878 5.9801C32.9739 8.80371 36.5594 14.7608 35.535 21.376C34.5226 27.9339 28.7919 33.1774 21.874 33.9139C12.4634 34.9144 4.46489 27.8937 4.46489 19.1301C4.46489 13.3988 7.88364 8.41729 12.8812 5.93228C13.5862 5.5822 14.0603 4.92026 14.0603 4.16271V3.98675C14.0603 2.40277 12.2887 1.42519 10.8123 2.15979C3.73377 5.674 -0.870109 13.0869 0.138243 21.4086C1.1948 30.1147 8.6389 37.1699 17.7844 38.1379C29.9087 39.4215 40.173 30.4169 40.173 19.1301C40.173 11.7746 35.8161 5.39085 29.4246 2.19038ZM18.0777 17.2171V1.91301C18.0777 0.855117 18.9775 0 20.0863 0C21.1971 0 22.0949 0.855117 22.0949 1.91301V17.2171C22.0949 18.2731 21.1971 19.1301 20.0863 19.1301C18.9775 19.1301 18.0777 18.2731 18.0777 17.2171Z" fill="#141414"/>
</svg>
