<svg width="51" height="50" viewBox="0 0 51 50" fill="none" xmlns="http://www.w3.org/2000/svg">
<path d="M14.875 22.9167V14.5833C14.875 11.8207 15.9944 9.17113 17.987 7.21763C19.9796 5.26412 22.6821 4.16666 25.5 4.16666C28.3179 4.16666 31.0204 5.26412 33.013 7.21763C35.0056 9.17113 36.125 11.8207 36.125 14.5833V22.9167M10.625 22.9167H40.375C42.7222 22.9167 44.625 24.7821 44.625 27.0833V41.6667C44.625 43.9678 42.7222 45.8333 40.375 45.8333H10.625C8.27779 45.8333 6.375 43.9678 6.375 41.6667V27.0833C6.375 24.7821 8.27779 22.9167 10.625 22.9167Z" stroke="#3785F1" stroke-width="3.5" stroke-linecap="round" stroke-linejoin="round"/>
</svg>
