<svg width="37" height="34" viewBox="0 0 37 34" fill="none" xmlns="http://www.w3.org/2000/svg">
<path d="M6.65691 33.7071C7.04743 34.0976 7.6806 34.0976 8.07112 33.7071L14.4351 27.3431C14.8256 26.9526 14.8256 26.3195 14.4351 25.9289C14.0446 25.5384 13.4114 25.5384 13.0209 25.9289L7.36401 31.5858L1.70716 25.9289C1.31664 25.5384 0.68347 25.5384 0.292946 25.9289C-0.0975785 26.3195 -0.0975785 26.9526 0.292946 27.3431L6.65691 33.7071ZM7.36401 1H6.36401L6.36401 33H7.36401H8.36401L8.36401 1L7.36401 1Z" fill="white" fill-opacity="0.25"/>
<path d="M30.0711 0.292892C29.6806 -0.0976295 29.0474 -0.0976295 28.6569 0.292892L22.2929 6.65685C21.9024 7.04738 21.9024 7.68054 22.2929 8.07107C22.6835 8.46159 23.3166 8.46159 23.7072 8.07107L29.364 2.41421L35.0209 8.07107C35.4114 8.46159 36.0446 8.46159 36.4351 8.07107C36.8256 7.68054 36.8256 7.04738 36.4351 6.65685L30.0711 0.292892ZM29.364 33H30.364L30.364 1H29.364H28.364L28.364 33H29.364Z" fill="white" fill-opacity="0.25"/>
</svg>
