<svg width="55" height="51" viewBox="0 0 55 51" fill="none" xmlns="http://www.w3.org/2000/svg">
<path d="M41.25 0C33.6685 0 27.5 6.46591 27.5 14.413V19.9565H6.34615C2.84096 19.9565 0 22.9345 0 26.6087V44.3478C0 48.022 2.84096 51 6.34615 51H29.6154C33.1206 51 35.9615 48.022 35.9615 44.3478V26.6087C35.9615 23.7129 34.1945 21.2558 31.7308 20.342V14.413C31.7308 8.9117 36.0007 4.43478 41.25 4.43478C46.4993 4.43478 50.7692 8.9117 50.7692 14.413V22.1739C50.7692 23.399 51.7169 24.3913 52.8846 24.3913C54.0523 24.3913 55 23.399 55 22.1739V14.413C55 6.46591 48.8315 0 41.25 0ZM6.34615 24.3913H29.6154C30.7841 24.3913 31.7308 25.3836 31.7308 26.6087V44.3478C31.7308 45.5729 30.7841 46.5652 29.6154 46.5652H6.34615C5.1774 46.5652 4.23077 45.5729 4.23077 44.3478V26.6087C4.23077 25.3836 5.1774 24.3913 6.34615 24.3913Z" fill="#3785F1"/>
</svg>
